<svg xmlns="http://www.w3.org/2000/svg" xmlns:xlink="http://www.w3.org/1999/xlink" width="475" zoomAndPan="magnify" viewBox="0 0 356.25 382.499997" height="510" preserveAspectRatio="xMidYMid meet" version="1.0">
  <style>
    /* Por defecto (Modo Claro del navegador): Icono Gris Oscuro/Negro */
    path { fill: #171717; }
    
    /* Si el usuario tiene el navegador o sistema en Modo Oscuro: Cambia a Blanco nítido */
    @media (prefers-color-scheme: dark) {
      path { fill: #ffffff; }
    }
  </style>
  <defs>
    <g/>
    <clipPath id="547faa357b">
      <rect x="0" width="201" y="0" height="238"/>
    </clipPath>
    <clipPath id="4dd11b2d4f">
      <rect x="0" width="190" y="0" height="239"/>
    </clipPath>
  </defs>
  <g transform="matrix(1, 0, 0, 1, 39, 34)">
    <g clip-path="url(#547faa357b)">
      <g>
        <g transform="translate(29.323082, 164.493417)">
          <g>
            <path d="M 26.28125 -6.15625 C 16.601562 -1.925781 6.003906 0.1875 -5.515625 0.1875 C -15.316406 0.1875 -21.65625 -1.40625 -24.53125 -4.59375 C -25.332031 -5.507812 -25.734375 -6.550781 -25.734375 -7.71875 C -25.734375 -8.882812 -25.242188 -10.046875 -24.265625 -11.203125 C -23.285156 -12.367188 -21.875 -13.351562 -20.03125 -14.15625 C -16.351562 -15.863281 -10.976562 -16.71875 -3.90625 -16.71875 C 3.164062 -16.71875 12.769531 -14.578125 24.90625 -10.296875 C 33.601562 -15.992188 44.265625 -27.445312 56.890625 -44.65625 C 44.390625 -45.03125 34.1875 -47.789062 26.28125 -52.9375 C 18.5625 -58.019531 14.703125 -64.570312 14.703125 -72.59375 C 14.703125 -80.625 18.378906 -88.039062 25.734375 -94.84375 C 33.203125 -101.757812 41.5625 -105.21875 50.8125 -105.21875 C 52.164062 -105.21875 52.84375 -104.851562 52.84375 -104.125 C 52.84375 -103.570312 51.15625 -103.125 47.78125 -102.78125 C 44.414062 -102.492188 40.96875 -101.359375 37.4375 -99.515625 C 33.914062 -97.679688 30.992188 -95.445312 28.671875 -92.8125 C 23.953125 -87.476562 21.59375 -81.960938 21.59375 -76.265625 C 21.59375 -70.578125 22.460938 -66.015625 24.203125 -62.578125 C 25.953125 -59.148438 28.453125 -56.300781 31.703125 -54.03125 C 38.078125 -49.6875 47.113281 -47.453125 58.8125 -47.328125 L 71.3125 -65.4375 C 86.507812 -88.101562 100.476562 -104.394531 113.21875 -114.3125 C 125.65625 -123.9375 138.550781 -128.75 151.90625 -128.75 C 159.007812 -128.75 163.726562 -126.570312 166.0625 -122.21875 C 166.789062 -120.8125 167.15625 -118.878906 167.15625 -116.421875 C 167.15625 -113.972656 166.34375 -110.957031 164.71875 -107.375 C 163.09375 -103.789062 160.828125 -100.128906 157.921875 -96.390625 C 155.015625 -92.660156 151.566406 -88.925781 147.578125 -85.1875 C 143.597656 -81.445312 139.25 -77.832031 134.53125 -74.34375 C 129.8125 -70.851562 124.800781 -67.546875 119.5 -64.421875 C 114.207031 -61.296875 108.804688 -58.445312 103.296875 -55.875 C 91.710938 -50.533906 80.835938 -47.109375 70.671875 -45.578125 C 57.191406 -27.566406 43.804688 -15.097656 30.515625 -8.171875 C 41.660156 -4.191406 54.984375 -2.203125 70.484375 -2.203125 C 84.203125 -2.203125 94.21875 -5.359375 100.53125 -11.671875 C 101.445312 -12.585938 102.03125 -12.769531 102.28125 -12.21875 C 102.707031 -11.238281 102.25 -10.078125 100.90625 -8.734375 C 92.507812 -1.378906 82.675781 2.296875 71.40625 2.296875 C 60.132812 2.296875 45.09375 -0.519531 26.28125 -6.15625 Z M 72.875 -48.515625 C 85.738281 -50.722656 99.367188 -55.992188 113.765625 -64.328125 C 126.992188 -71.921875 138.113281 -80.742188 147.125 -90.796875 C 156.375 -101.023438 161 -110.148438 161 -118.171875 C 161 -121.734375 159.039062 -124.304688 155.125 -125.890625 C 153.957031 -126.378906 152.703125 -126.625 151.359375 -126.625 C 131.867188 -126.625 112.84375 -111.375 94.28125 -80.875 L 83.265625 -63.59375 C 79.765625 -58.195312 76.300781 -53.171875 72.875 -48.515625 Z M -4.40625 -12.03125 C -16.90625 -12.03125 -23.15625 -10.5 -23.15625 -7.4375 C -23.15625 -5.351562 -20 -3.734375 -13.6875 -2.578125 C -11.664062 -2.203125 -8.695312 -2.015625 -4.78125 -2.015625 C 5.144531 -2.015625 13.660156 -3.945312 20.765625 -7.8125 C 10.109375 -10.625 1.714844 -12.03125 -4.40625 -12.03125 Z M -4.40625 -12.03125 "/>
          </g>
        </g>
      </g>
    </g>
  </g>
  <g transform="matrix(1, 0, 0, 1, 139, 106)">
    <g clip-path="url(#4dd11b2d4f)">
      <g>
        <g transform="translate(5.866045, 164.783063)">
          <g>
            <path d="M 46.3125 -4.5 C 36.332031 -1.132812 25.367188 0.546875 13.421875 0.546875 C 5.210938 0.546875 0.00390625 -0.890625 -2.203125 -3.765625 C -2.816406 -4.566406 -3.125 -5.410156 -3.125 -6.296875 C -3.125 -7.179688 -2.707031 -8.082031 -1.875 -9 C -1.050781 -9.925781 0.15625 -10.785156 1.75 -11.578125 C 5.363281 -13.296875 9.007812 -14.15625 12.6875 -14.15625 C 16.363281 -14.15625 19.023438 -14.0625 20.671875 -13.875 C 22.328125 -13.6875 24.132812 -13.410156 26.09375 -13.046875 C 29.53125 -12.316406 32.960938 -11.441406 36.390625 -10.421875 C 39.816406 -9.410156 41.625 -8.90625 41.8125 -8.90625 C 42 -8.90625 42.210938 -8.847656 42.453125 -8.734375 C 48.703125 -12.097656 54.875 -16.734375 60.96875 -22.640625 C 67.0625 -28.554688 72.53125 -34.210938 77.375 -39.609375 L 93.28125 -58.265625 L 108.71875 -76.828125 L 116.984375 -85.921875 C 119.859375 -88.984375 123.148438 -92.257812 126.859375 -95.75 C 130.566406 -99.25 134.929688 -102.679688 139.953125 -106.046875 C 131.742188 -118.671875 117.378906 -124.984375 96.859375 -124.984375 C 85.398438 -124.984375 73.941406 -121.796875 62.484375 -115.421875 C 52.128906 -109.597656 43.554688 -102.273438 36.765625 -93.453125 C 30.078125 -84.753906 26.734375 -76.789062 26.734375 -69.5625 C 26.734375 -65.15625 28.25 -61.601562 31.28125 -58.90625 C 34.320312 -56.207031 38.015625 -54.859375 42.359375 -54.859375 C 46.710938 -54.859375 50.925781 -55.59375 55 -57.0625 C 59.070312 -58.53125 63.238281 -60.535156 67.5 -63.078125 C 71.757812 -65.628906 75.96875 -68.617188 80.125 -72.046875 C 84.289062 -75.472656 88.03125 -79.148438 91.34375 -83.078125 C 98.632812 -91.710938 102.554688 -99.953125 103.109375 -107.796875 C 103.296875 -109.203125 103.632812 -109.90625 104.125 -109.90625 C 104.851562 -109.90625 105.21875 -109.265625 105.21875 -107.984375 C 105.21875 -99.222656 102.25 -90.488281 96.3125 -81.78125 C 87.238281 -68.363281 74.921875 -59.300781 59.359375 -54.59375 C 54.335938 -53.050781 49.804688 -52.28125 45.765625 -52.28125 C 41.722656 -52.28125 38.351562 -52.738281 35.65625 -53.65625 C 32.957031 -54.582031 30.566406 -55.90625 28.484375 -57.625 C 23.765625 -61.414062 21.40625 -65.835938 21.40625 -70.890625 C 21.40625 -75.953125 22.289062 -80.75 24.0625 -85.28125 C 25.84375 -89.8125 28.359375 -94.128906 31.609375 -98.234375 C 34.859375 -102.335938 38.765625 -106.148438 43.328125 -109.671875 C 47.890625 -113.203125 52.929688 -116.28125 58.453125 -118.90625 C 70.273438 -124.425781 82.894531 -127.1875 96.3125 -127.1875 C 117.625 -127.1875 133.304688 -120.875 143.359375 -108.25 C 157.328125 -117.070312 169.851562 -121.726562 180.9375 -122.21875 C 181.863281 -122.21875 182.328125 -121.972656 182.328125 -121.484375 C 182.328125 -120.992188 182.171875 -120.671875 181.859375 -120.515625 C 181.554688 -120.367188 180.703125 -120.171875 179.296875 -119.921875 C 168.503906 -118.640625 157.566406 -113.21875 146.484375 -103.65625 C 151.015625 -96.125 153.28125 -87.945312 153.28125 -79.125 C 153.28125 -70.300781 152.269531 -62.519531 150.25 -55.78125 C 148.226562 -49.039062 145.441406 -42.804688 141.890625 -37.078125 C 138.335938 -31.347656 134.09375 -26.1875 129.15625 -21.59375 C 124.226562 -17 118.851562 -13.109375 113.03125 -9.921875 C 100.78125 -3.179688 87.945312 0.1875 74.53125 0.1875 C 66.195312 0.1875 56.789062 -1.375 46.3125 -4.5 Z M 50.640625 -6.15625 C 58.421875 -3.769531 65.925781 -2.578125 73.15625 -2.578125 C 80.382812 -2.578125 86.953125 -3.414062 92.859375 -5.09375 C 98.773438 -6.78125 104.410156 -9.171875 109.765625 -12.265625 C 115.128906 -15.359375 120.109375 -19.125 124.703125 -23.5625 C 129.296875 -28.007812 133.28125 -32.957031 136.65625 -38.40625 C 143.820312 -50.113281 147.40625 -62.921875 147.40625 -76.828125 C 147.40625 -86.078125 145.898438 -93.976562 142.890625 -100.53125 C 136.035156 -94.164062 129.601562 -86.660156 123.59375 -78.015625 L 106.78125 -54.40625 C 88.832031 -29.894531 70.117188 -13.8125 50.640625 -6.15625 Z M 38.328125 -6.703125 C 29.253906 -9.035156 21.804688 -10.203125 15.984375 -10.203125 C 10.171875 -10.203125 5.960938 -9.800781 3.359375 -9 C 0.753906 -8.207031 -0.546875 -7.289062 -0.546875 -6.25 C -0.546875 -3.675781 4.628906 -2.390625 14.984375 -2.390625 C 24.046875 -2.390625 31.828125 -3.828125 38.328125 -6.703125 Z M 38.328125 -6.703125 "/>
          </g>
        </g>
      </g>
    </g>
  </g>
  <g>
    <g transform="translate(74.072559, 280.218129)">
      <g>
        <path d="M 30.84375 0.671875 C 22.988281 0.671875 16.535156 -1.191406 11.484375 -4.921875 C 6.441406 -8.660156 3.734375 -14.015625 3.359375 -20.984375 L 23.375 -20.984375 C 23.5625 -18.617188 24.257812 -16.890625 25.46875 -15.796875 C 26.6875 -14.710938 28.253906 -14.171875 30.171875 -14.171875 C 31.898438 -14.171875 33.320312 -14.601562 34.4375 -15.46875 C 35.550781 -16.332031 36.109375 -17.53125 36.109375 -19.0625 C 36.109375 -21.039062 35.179688 -22.570312 33.328125 -23.65625 C 31.484375 -24.75 28.484375 -25.960938 24.328125 -27.296875 C 19.921875 -28.765625 16.359375 -30.1875 13.640625 -31.5625 C 10.929688 -32.9375 8.570312 -34.945312 6.5625 -37.59375 C 4.550781 -40.25 3.546875 -43.71875 3.546875 -48 C 3.546875 -52.34375 4.628906 -56.0625 6.796875 -59.15625 C 8.972656 -62.25 11.972656 -64.59375 15.796875 -66.1875 C 19.628906 -67.789062 23.972656 -68.59375 28.828125 -68.59375 C 36.691406 -68.59375 42.96875 -66.753906 47.65625 -63.078125 C 52.351562 -59.410156 54.859375 -54.253906 55.171875 -47.609375 L 34.78125 -47.609375 C 34.707031 -49.648438 34.082031 -51.179688 32.90625 -52.203125 C 31.726562 -53.222656 30.210938 -53.734375 28.359375 -53.734375 C 26.953125 -53.734375 25.800781 -53.316406 24.90625 -52.484375 C 24.007812 -51.660156 23.5625 -50.484375 23.5625 -48.953125 C 23.5625 -47.671875 24.054688 -46.566406 25.046875 -45.640625 C 26.035156 -44.722656 27.265625 -43.925781 28.734375 -43.25 C 30.203125 -42.582031 32.375 -41.738281 35.25 -40.71875 C 39.53125 -39.25 43.054688 -37.796875 45.828125 -36.359375 C 48.609375 -34.921875 51.003906 -32.90625 53.015625 -30.3125 C 55.035156 -27.726562 56.046875 -24.457031 56.046875 -20.5 C 56.046875 -16.476562 55.035156 -12.867188 53.015625 -9.671875 C 51.003906 -6.484375 48.097656 -3.960938 44.296875 -2.109375 C 40.503906 -0.253906 36.019531 0.671875 30.84375 0.671875 Z M 30.84375 0.671875 "/>
      </g>
    </g>
  </g>
</svg>
