<svg xmlns="http://www.w3.org/2000/svg" xmlns:xlink="http://www.w3.org/1999/xlink" width="1080" zoomAndPan="magnify" viewBox="0 0 810 599.999999" height="800" preserveAspectRatio="xMidYMid meet" version="1.0">
<style>
  path {
    fill: #171717;
  }
  @media (prefers-color-scheme: dark) {
    path {
      fill: #ffffff;
    }
  }
</style>
<defs><g/><clipPath id="2990dc8955"><path d="M 1 0 L 546 0 L 546 369 L 1 369 Z M 1 0 " clip-rule="nonzero"/></clipPath><clipPath id="0acaf6cc12"><rect x="0" width="558" y="0" height="570"/></clipPath><clipPath id="4a5b887e14"><path d="M 274 103 L 808.078125 103 L 808.078125 600 L 274 600 Z M 274 103 " clip-rule="nonzero"/></clipPath><clipPath id="8576e91b17"><rect x="0" width="535" y="0" height="497"/></clipPath><clipPath id="d5b795c0ee"><rect x="0" width="269" y="0" height="291"/></clipPath><clipPath id="8903b1a02a"><rect x="0" width="809" y="0" height="600"/></clipPath></defs><g transform="matrix(1, 0, 0, 1, 0, -0.000000000000034788)"><g clip-path="url(#8903b1a02a)"><g transform="matrix(1, 0, 0, 1, 0, -0.000000000000034788)"><g clip-path="url(#0acaf6cc12)"><g clip-path="url(#2990dc8955)"><g fill-opacity="1"><g transform="translate(73.96673, 362.044956)"><g><path d="M 74.1875 -17.375 C 46.863281 -5.445312 16.945312 0.515625 -15.5625 0.515625 C -43.226562 0.515625 -61.128906 -3.976562 -69.265625 -12.96875 C -71.503906 -15.5625 -72.625 -18.5 -72.625 -21.78125 C -72.625 -25.070312 -71.238281 -28.359375 -68.46875 -31.640625 C -65.707031 -34.929688 -61.734375 -37.703125 -56.546875 -39.953125 C -46.171875 -44.785156 -30.992188 -47.203125 -11.015625 -47.203125 C 8.949219 -47.203125 36.054688 -41.148438 70.296875 -29.046875 C 94.847656 -45.128906 124.9375 -77.46875 160.5625 -126.0625 C 125.289062 -127.101562 96.5 -134.890625 74.1875 -149.421875 C 52.394531 -163.765625 41.5 -182.265625 41.5 -204.921875 C 41.5 -227.578125 51.875 -248.503906 72.625 -267.703125 C 93.726562 -287.242188 117.335938 -297.015625 143.453125 -297.015625 C 147.253906 -297.015625 149.15625 -295.976562 149.15625 -293.90625 C 149.15625 -292.34375 144.398438 -291.085938 134.890625 -290.140625 C 125.378906 -289.191406 115.648438 -286.117188 105.703125 -280.921875 C 95.765625 -275.734375 87.507812 -269.425781 80.9375 -262 C 67.613281 -246.945312 60.953125 -231.378906 60.953125 -215.296875 C 60.953125 -199.210938 63.414062 -186.328125 68.34375 -176.640625 C 73.28125 -166.960938 80.332031 -158.925781 89.5 -152.53125 C 107.476562 -140.25 132.984375 -133.9375 166.015625 -133.59375 L 201.296875 -184.6875 C 244.179688 -248.675781 283.609375 -294.675781 319.578125 -322.6875 C 354.679688 -349.84375 391.082031 -363.421875 428.78125 -363.421875 C 448.84375 -363.421875 462.160156 -357.28125 468.734375 -345 C 470.804688 -341.019531 471.84375 -335.570312 471.84375 -328.65625 C 471.84375 -321.738281 469.550781 -313.222656 464.96875 -303.109375 C 460.382812 -292.992188 453.984375 -282.660156 445.765625 -272.109375 C 437.554688 -261.554688 427.832031 -251.003906 416.59375 -240.453125 C 405.351562 -229.910156 393.070312 -219.707031 379.75 -209.84375 C 366.4375 -199.988281 352.300781 -190.648438 337.34375 -181.828125 C 322.382812 -173.015625 307.125 -164.976562 291.5625 -157.71875 C 258.875 -142.664062 228.179688 -132.976562 199.484375 -128.65625 C 161.429688 -77.820312 123.644531 -42.632812 86.125 -23.09375 C 117.59375 -11.84375 155.203125 -6.21875 198.953125 -6.21875 C 337.691406 -6.21875 265.96875 -15.125 283.78125 -32.9375 C 286.375 -35.53125 288.019531 -36.050781 288.71875 -34.5 C 289.925781 -31.726562 288.628906 -28.441406 284.828125 -24.640625 C 261.128906 -3.890625 233.367188 6.484375 201.546875 6.484375 C 169.734375 6.484375 127.28125 -1.46875 74.1875 -17.375 Z M 205.703125 -136.96875 C 242.015625 -143.1875 280.492188 -158.054688 321.140625 -181.578125 C 358.492188 -203.023438 389.878906 -227.925781 415.296875 -256.28125 C 441.410156 -285.164062 454.46875 -310.9375 454.46875 -333.59375 C 454.46875 -343.625 448.929688 -350.882812 437.859375 -355.375 C 434.578125 -356.757812 431.035156 -357.453125 427.234375 -357.453125 C 372.234375 -357.453125 318.535156 -314.390625 266.140625 -228.265625 L 235.015625 -179.5 C 225.160156 -164.28125 215.390625 -150.101562 205.703125 -136.96875 Z M -12.453125 -33.984375 C -47.734375 -33.984375 -65.375 -29.660156 -65.375 -21.015625 C -65.375 -15.128906 -56.46875 -10.546875 -38.65625 -7.265625 C -32.945312 -6.222656 -24.554688 -5.703125 -13.484375 -5.703125 C 14.523438 -5.703125 38.5625 -11.148438 58.625 -22.046875 C 28.53125 -30.003906 4.835938 -33.984375 -12.453125 -33.984375 Z M -12.453125 -33.984375 "/></g></g></g></g></g></g><g clip-path="url(#4a5b887e14)"><g transform="matrix(1, 0, 0, 1, 274, 103)"><g clip-path="url(#8576e91b17)"><g fill-opacity="1"><g transform="translate(16.029989, 463.102084)"><g><path d="M 130.734375 -12.703125 C 102.546875 -3.191406 71.59375 1.5625 37.875 1.5625 C 14.695312 1.5625 0 -2.503906 -6.21875 -10.640625 C -7.945312 -12.878906 -8.8125 -15.253906 -8.8125 -17.765625 C -8.8125 -20.273438 -7.644531 -22.828125 -5.3125 -25.421875 C -2.976562 -28.015625 0.429688 -30.4375 4.921875 -32.6875 C 15.128906 -37.53125 25.421875 -39.953125 35.796875 -39.953125 C 46.171875 -39.953125 53.691406 -39.691406 58.359375 -39.171875 C 63.035156 -38.648438 68.140625 -37.867188 73.671875 -36.828125 C 83.359375 -34.753906 93.039062 -32.289062 102.71875 -29.4375 C 112.40625 -26.582031 117.507812 -25.15625 118.03125 -25.15625 C 118.550781 -25.15625 119.15625 -24.984375 119.84375 -24.640625 C 137.476562 -34.148438 154.898438 -47.25 172.109375 -63.9375 C 189.316406 -80.625 204.753906 -96.578125 218.421875 -111.796875 L 263.296875 -164.453125 L 306.875 -216.859375 L 330.21875 -242.53125 C 338.34375 -251.1875 347.632812 -260.441406 358.09375 -270.296875 C 368.5625 -280.148438 380.882812 -289.832031 395.0625 -299.34375 C 371.894531 -334.96875 331.34375 -352.78125 273.40625 -352.78125 C 241.070312 -352.78125 208.734375 -343.789062 176.390625 -325.8125 C 147.160156 -309.375 122.953125 -288.707031 103.765625 -263.8125 C 84.910156 -239.25 75.484375 -216.765625 75.484375 -196.359375 C 75.484375 -183.910156 79.765625 -173.878906 88.328125 -166.265625 C 96.890625 -158.660156 107.304688 -154.859375 119.578125 -154.859375 C 131.859375 -154.859375 143.75 -156.929688 155.25 -161.078125 C 166.75 -165.234375 178.507812 -170.898438 190.53125 -178.078125 C 202.550781 -185.253906 214.4375 -193.679688 226.1875 -203.359375 C 237.945312 -213.046875 248.5 -223.425781 257.84375 -234.5 C 278.425781 -258.882812 289.492188 -282.144531 291.046875 -304.28125 C 291.566406 -308.25 292.519531 -310.234375 293.90625 -310.234375 C 295.976562 -310.234375 297.015625 -308.421875 297.015625 -304.796875 C 297.015625 -280.066406 288.625 -255.421875 271.84375 -230.859375 C 246.25 -192.992188 211.492188 -167.398438 167.578125 -154.078125 C 153.390625 -149.753906 140.585938 -147.59375 129.171875 -147.59375 C 117.765625 -147.59375 108.253906 -148.890625 100.640625 -151.484375 C 93.035156 -154.078125 86.289062 -157.796875 80.40625 -162.640625 C 67.09375 -173.359375 60.4375 -185.851562 60.4375 -200.125 C 60.4375 -214.394531 62.941406 -227.925781 67.953125 -240.71875 C 72.972656 -253.519531 80.066406 -265.710938 89.234375 -277.296875 C 98.398438 -288.878906 109.421875 -299.644531 122.296875 -309.59375 C 135.179688 -319.539062 149.410156 -328.226562 164.984375 -335.65625 C 198.359375 -351.226562 233.976562 -359.015625 271.84375 -359.015625 C 332.03125 -359.015625 376.300781 -341.203125 404.65625 -305.578125 C 444.09375 -330.472656 479.457031 -343.613281 510.75 -345 C 513.351562 -345 514.65625 -344.304688 514.65625 -342.921875 C 514.65625 -341.535156 514.21875 -340.625 513.34375 -340.1875 C 512.476562 -339.757812 510.0625 -339.203125 506.09375 -338.515625 C 475.65625 -334.878906 444.785156 -319.578125 413.484375 -292.609375 C 426.273438 -271.335938 432.671875 -248.25 432.671875 -223.34375 C 432.671875 -198.4375 429.816406 -176.472656 424.109375 -157.453125 C 418.410156 -138.429688 410.546875 -120.832031 400.515625 -104.65625 C 390.484375 -88.488281 378.503906 -73.921875 364.578125 -60.953125 C 350.660156 -47.984375 335.488281 -37.003906 319.0625 -28.015625 C 284.476562 -8.992188 248.25 0.515625 210.375 0.515625 C 186.851562 0.515625 160.304688 -3.890625 130.734375 -12.703125 Z M 142.921875 -17.375 C 164.890625 -10.632812 186.078125 -7.265625 206.484375 -7.265625 C 226.890625 -7.265625 245.4375 -9.640625 262.125 -14.390625 C 278.8125 -19.148438 294.71875 -25.894531 309.84375 -34.625 C 324.976562 -43.363281 339.03125 -54 352 -66.53125 C 364.96875 -79.070312 376.210938 -93.035156 385.734375 -108.421875 C 405.960938 -141.453125 416.078125 -177.597656 416.078125 -216.859375 C 416.078125 -242.972656 411.835938 -265.28125 403.359375 -283.78125 C 383.992188 -265.800781 365.835938 -244.617188 348.890625 -220.234375 L 301.421875 -153.5625 C 250.753906 -84.394531 197.921875 -39 142.921875 -17.375 Z M 108.171875 -18.9375 C 82.578125 -25.507812 61.566406 -28.796875 45.140625 -28.796875 C 28.710938 -28.796875 16.820312 -27.671875 9.46875 -25.421875 C 2.113281 -23.171875 -1.5625 -20.578125 -1.5625 -17.640625 C -1.5625 -10.378906 13.050781 -6.75 42.28125 -6.75 C 67.875 -6.75 89.835938 -10.8125 108.171875 -18.9375 Z M 108.171875 -18.9375 "/></g></g></g></g></g></g><g transform="matrix(1, 0, 0, 1, 89, 309)"><g clip-path="url(#d5b795c0ee)"><g fill-opacity="1"><g transform="translate(1.196173, 283.735096)"><g><path d="M 87.078125 1.890625 C 64.898438 1.890625 46.691406 -3.378906 32.453125 -13.921875 C 18.210938 -24.472656 10.550781 -39.570312 9.46875 -59.21875 L 65.984375 -59.21875 C 66.523438 -52.550781 68.503906 -47.679688 71.921875 -44.609375 C 75.347656 -41.546875 79.769531 -40.015625 85.1875 -40.015625 C 90.050781 -40.015625 94.0625 -41.234375 97.21875 -43.671875 C 100.375 -46.109375 101.953125 -49.488281 101.953125 -53.8125 C 101.953125 -59.40625 99.335938 -63.734375 94.109375 -66.796875 C 88.878906 -69.859375 80.40625 -73.28125 68.6875 -77.0625 C 56.25 -81.21875 46.195312 -85.234375 38.53125 -89.109375 C 30.875 -92.984375 24.203125 -98.660156 18.515625 -106.140625 C 12.835938 -113.617188 10 -123.398438 10 -135.484375 C 10 -147.742188 13.0625 -158.242188 19.1875 -166.984375 C 25.320312 -175.722656 33.796875 -182.347656 44.609375 -186.859375 C 55.429688 -191.367188 67.691406 -193.625 81.390625 -193.625 C 103.566406 -193.625 121.28125 -188.441406 134.53125 -178.078125 C 147.78125 -167.710938 154.859375 -153.15625 155.765625 -134.40625 L 98.15625 -134.40625 C 97.976562 -140.164062 96.222656 -144.488281 92.890625 -147.375 C 89.554688 -150.257812 85.273438 -151.703125 80.046875 -151.703125 C 76.078125 -151.703125 72.832031 -150.53125 70.3125 -148.1875 C 67.789062 -145.84375 66.53125 -142.507812 66.53125 -138.1875 C 66.53125 -134.582031 67.925781 -131.472656 70.71875 -128.859375 C 73.507812 -126.242188 76.976562 -123.988281 81.125 -122.09375 C 85.269531 -120.195312 91.398438 -117.804688 99.515625 -114.921875 C 111.597656 -110.773438 121.554688 -106.675781 129.390625 -102.625 C 137.234375 -98.570312 143.992188 -92.894531 149.671875 -85.59375 C 155.359375 -78.289062 158.203125 -69.050781 158.203125 -57.875 C 158.203125 -46.507812 155.359375 -36.320312 149.671875 -27.3125 C 143.992188 -18.300781 135.789062 -11.179688 125.0625 -5.953125 C 114.34375 -0.722656 101.679688 1.890625 87.078125 1.890625 Z M 87.078125 1.890625 "/></g></g></g></g></g></g></g></svg>
